<?xml version="1.0" encoding="iso-8859-1"?>
<!-- Generator: Adobe Illustrator 19.0.0, SVG Export Plug-In . SVG Version: 6.00 Build 0)  -->
<svg version="1.1" id="Layer_1" xmlns="http://www.w3.org/2000/svg" xmlns:xlink="http://www.w3.org/1999/xlink" x="0px" y="0px"
	 viewBox="0 0 512 512" style="enable-background:new 0 0 512 512;" xml:space="preserve">
<circle style="fill:#FFCC4D;" cx="256" cy="256" r="256"/>
<path style="opacity:0.1;enable-background:new    ;" d="M32.876,256c0-135.861,105.84-246.984,239.562-255.46
	C267.001,0.195,261.524,0,256,0C114.615,0,0,114.615,0,256s114.615,256,256,256c5.524,0,11.001-0.195,16.437-0.54
	C138.715,502.984,32.876,391.861,32.876,256z"/>
<path style="fill:#845932;" d="M274.324,250.902h-26.2c-10.082,0-18.286-8.203-18.286-18.286v-60.692
	c0-4.328,3.509-7.837,7.837-7.837c4.328,0,7.837,3.509,7.837,7.837v60.692c0,1.416,1.196,2.612,2.612,2.612h26.2
	c4.329,0,7.837,3.509,7.837,7.837C282.161,247.393,278.653,250.902,274.324,250.902z"/>
<path style="fill:#F16A5D;" d="M256,427.398c-75.076,0-138.59-56.148-147.738-130.604c-0.263-2.143,0.404-4.297,1.836-5.914
	c1.43-1.616,3.486-2.543,5.646-2.543h280.513c2.159,0,4.214,0.927,5.646,2.543c1.429,1.618,2.098,3.77,1.836,5.914
	C394.59,371.25,331.077,427.398,256,427.398z"/>
<path style="fill:#FFFFFF;" d="M396.257,288.336H115.742c-2.16,0-4.215,0.927-5.646,2.543c-1.432,1.618-2.099,3.77-1.836,5.914
	c1.437,11.694,4.217,22.937,8.17,33.581h279.137c3.954-10.644,6.733-21.886,8.17-33.581c0.262-2.143-0.406-4.297-1.836-5.914
	C400.472,289.263,398.416,288.336,396.257,288.336z"/>
<g>
	<path style="fill:#845932;" d="M161.051,199.621c0,10.482-8.498,18.981-18.98,18.981l0,0c-10.483,0-18.981-8.498-18.981-18.981
		v-28.119c0-10.482,8.497-18.98,18.981-18.98l0,0c10.482,0,18.98,8.497,18.98,18.98V199.621z"/>
	<path style="fill:#845932;" d="M388.909,199.621c0,10.482-8.498,18.981-18.981,18.981l0,0c-10.481,0-18.98-8.498-18.98-18.981
		v-28.119c0-10.482,8.498-18.98,18.98-18.98l0,0c10.482,0,18.981,8.497,18.981,18.98V199.621z"/>
</g>
<path style="fill:#FFADAB;" d="M225.28,377.802c-19.816,0-36.75,12.299-43.614,29.677c21.975,12.697,47.41,19.919,74.334,19.919
	s52.359-7.222,74.334-19.919c-6.863-17.378-23.797-29.677-43.613-29.677c-11.755,0-22.49,4.335-30.72,11.482
	C247.77,382.138,237.035,377.802,225.28,377.802z"/>
<g style="opacity:0.1;">
	<path d="M249.026,384.273c-6.964-4.105-15.077-6.47-23.746-6.47c-19.816,0-36.75,12.299-43.614,29.677
		c8.666,5.007,17.877,9.147,27.499,12.344C218.115,403.985,232.135,391.4,249.026,384.273z"/>
</g>
<path style="opacity:0.1;enable-background:new    ;" d="M181.666,407.479c2.426-6.142,6.115-11.645,10.739-16.199
	c-27.195-23.421-45.949-56.577-50.607-94.486c-0.263-2.143,0.404-4.297,1.836-5.914c1.43-1.616,3.486-2.543,5.646-2.543h-33.538
	c-2.16,0-4.215,0.927-5.646,2.543c-1.432,1.618-2.099,3.77-1.836,5.914c6.023,49.017,35.611,90.096,76.545,112.447
	C183.753,408.665,182.705,408.08,181.666,407.479z"/>
<g>
</g>
<g>
</g>
<g>
</g>
<g>
</g>
<g>
</g>
<g>
</g>
<g>
</g>
<g>
</g>
<g>
</g>
<g>
</g>
<g>
</g>
<g>
</g>
<g>
</g>
<g>
</g>
<g>
</g>
</svg>
